# xmcd
#
# Track frame offsets:
#	150
#	16713
#	33382
#	55683
#	72752
#	88687
#	105631
#	123821
#	141740
#	157528
#	179311
#	193681
#	211974
#	235726
#	253873
#
# Disc length: 3716
#
# Revision: 2
# Processed by: cddbd v1.5.1PL0 Copyright (c) Steve Scherf et al.
# Submitted via: EasyCDDAExtractor 4.6.9.1
# Normalized: r0:DSETVAR1,TDELIM( - ),TSWAP
#
DISCID=c20e820f
DTITLE=Various Artist - Soul in Motion Disc 1
DYEAR=2001
DGENRE=Soul
TTITLE0=MN8 - I've Got A Little Something For You
TTITLE1=M People - Colour My Life
TTITLE2=Another Level - Freak Me
TTITLE3=Robyn - You've Got That Somethin'
TTITLE4=La Bouche - Fallin' In Love
TTITLE5=Jade - Every Day Of The Week
TTITLE6=Soultans - The First Cut Is The Deepest
TTITLE7=Emel - Slowly
TTITLE8=Cherokee - Oopsy Daisy
TTITLE9=SWV - Can We
TTITLE10=N-Tune - Everybody
TTITLE11=Monica - Street Symphony
TTITLE12=Lisa Stansfield - Never Gonna Fall
TTITLE13=Marisa Turner - Don't Make Me Stop
TTITLE14=Earth, Wind and Fire - Let's Groove
EXTD=
EXTT0=
EXTT1=
EXTT2=
EXTT3=
EXTT4=
EXTT5=
EXTT6=
EXTT7=
EXTT8=
EXTT9=
EXTT10=
EXTT11=
EXTT12=
EXTT13=
EXTT14=
PLAYORDER=
